<svg width="190" height="52" fill="none" xmlns="http://www.w3.org/2000/svg"><rect x="1" y="1" width="181" height="40" rx="1" stroke="#000" stroke-width="2"/><rect x="6.025" y="10.661" width="181" height="40" rx="1" transform="rotate(-1.468 6.025 10.661)" stroke="#000" stroke-width="2"/><path d="M49.903 19.94h2.043l.917 3.21.306 1.25h.042l.305-1.25.876-3.21h2.043V29H54.78v-2.96c0-.25.01-.556.028-.917.018-.37.041-.75.07-1.14.027-.389.055-.764.083-1.125.027-.37.055-.677.083-.917h-.042l-.708 2.487-.695 2.154h-.904l-.694-2.154-.681-2.487h-.056c.028.24.056.546.084.917l.083 1.125c.028.39.05.77.07 1.14.018.361.027.667.027.917V29h-1.626v-9.06zM58.625 30c.176.056.356.084.542.084.398 0 .709-.083.93-.25.233-.167.404-.385.515-.653l.139-.362-2.988-6.712h2.03l1.153 2.96c.13.325.25.663.36 1.015.112.342.223.695.334 1.056h.056c.093-.343.195-.686.306-1.029.11-.352.217-.699.32-1.042l1.014-2.96h1.931l-2.723 6.963a7.281 7.281 0 0 1-.542 1.139 3.143 3.143 0 0 1-.667.82c-.25.222-.542.389-.876.5a3.519 3.519 0 0 1-1.14.167c-.203 0-.393-.014-.57-.042a2.51 2.51 0 0 1-.485-.097l.36-1.556zm15.984-5.475c0-.76.107-1.431.32-2.015.222-.593.518-1.088.889-1.487.38-.407.824-.718 1.334-.93a4.206 4.206 0 0 1 1.64-.32c.611 0 1.13.12 1.556.361a4.58 4.58 0 0 1 1.098.792l-1.126 1.265a2.596 2.596 0 0 0-.639-.473c-.231-.12-.528-.18-.89-.18-.296 0-.569.069-.82.208a1.9 1.9 0 0 0-.652.57 3.02 3.02 0 0 0-.445.917 4.503 4.503 0 0 0-.153 1.223c0 .936.176 1.663.528 2.182.362.51.904.764 1.626.764.176 0 .343-.023.5-.07a.979.979 0 0 0 .39-.208v-1.556h-1.32V23.9h3.154v4.169c-.306.287-.709.542-1.21.764-.5.223-1.041.334-1.625.334-.584 0-1.13-.098-1.64-.292-.5-.204-.94-.5-1.32-.89-.37-.389-.662-.87-.876-1.445-.212-.583-.32-1.255-.32-2.015zm8.569 2.557c0-.389.083-.727.25-1.014.167-.297.43-.547.792-.75.37-.204.843-.367 1.417-.487.575-.13 1.27-.218 2.085-.264a1.017 1.017 0 0 0-.417-.736c-.232-.177-.584-.264-1.056-.264-.334 0-.672.06-1.015.18a8.36 8.36 0 0 0-1.084.459l-.722-1.334a8.256 8.256 0 0 1 1.514-.667 5.542 5.542 0 0 1 1.71-.264c.963 0 1.723.254 2.279.764.556.51.834 1.292.834 2.348V29h-1.668l-.153-.778h-.055a5.727 5.727 0 0 1-1.154.68 3.292 3.292 0 0 1-1.292.265c-.352 0-.667-.056-.945-.167a2.022 2.022 0 0 1-.709-.43 2.2 2.2 0 0 1-.459-.668 2.153 2.153 0 0 1-.152-.82zm1.96-.153c0 .223.082.39.25.5.175.103.411.154.708.154.306 0 .593-.06.861-.181.27-.13.524-.287.765-.473v-1.14a9.53 9.53 0 0 0-1.265.14 2.958 2.958 0 0 0-.792.25c-.194.093-.333.204-.417.334a.827.827 0 0 0-.11.416zm6.386-7.67h4.044v7.128c0 .213.028.394.083.542.065.14.148.255.25.348.112.083.232.143.362.18.139.037.278.056.417.056.157 0 .324-.014.5-.042.176-.037.37-.097.584-.18l.458 1.5-.514.153a4.365 4.365 0 0 1-.472.112 4.045 4.045 0 0 1-.5.083c-.177.018-.371.028-.584.028-.871 0-1.529-.255-1.974-.765-.435-.518-.653-1.218-.653-2.098v-5.433h-2.001v-1.612zm8.332 0h4.044v7.128c0 .213.028.394.084.542.065.14.148.255.25.348.111.083.232.143.361.18.139.037.278.056.417.056.158 0 .324-.014.5-.042.176-.037.371-.097.584-.18l.459 1.5-.515.153a4.301 4.301 0 0 1-.472.112 4.028 4.028 0 0 1-.5.083 5.622 5.622 0 0 1-.584.028c-.871 0-1.529-.255-1.973-.765-.436-.518-.653-1.218-.653-2.098v-5.433h-2.002v-1.612zm8.236 6.295c0-.566.097-1.07.292-1.515.203-.445.472-.82.806-1.126a3.5 3.5 0 0 1 1.139-.722 3.74 3.74 0 0 1 1.348-.25c.528 0 .996.083 1.404.25.407.167.745.398 1.014.695.269.296.473.648.612 1.056.138.398.208.834.208 1.306a4.673 4.673 0 0 1-.083.903h-4.642c.074.519.297.894.667 1.126.38.222.825.333 1.334.333.315 0 .612-.037.89-.11.287-.084.583-.205.889-.362l.667 1.223a5.099 5.099 0 0 1-2.724.806 4.639 4.639 0 0 1-1.501-.236 3.658 3.658 0 0 1-1.209-.71 3.516 3.516 0 0 1-.819-1.139c-.195-.444-.292-.954-.292-1.528zm4.975-.75c0-.39-.107-.705-.32-.946-.213-.24-.556-.361-1.028-.361-.371 0-.7.107-.987.32-.287.213-.477.542-.57.986h2.905zm4.205-2.697h1.668l.166 1.501h.042c.343-.565.755-.982 1.237-1.25a3.06 3.06 0 0 1 1.556-.417c.306 0 .551.023.737.069.194.046.393.116.597.208l-.417 1.71a4.345 4.345 0 0 0-.583-.14 3.032 3.032 0 0 0-.64-.055c-.426 0-.847.125-1.264.375-.408.25-.76.686-1.056 1.307V29h-2.043v-6.893zm8.013 7.894c.176.055.356.083.542.083.398 0 .708-.083.931-.25.231-.167.403-.385.514-.653l.139-.362-2.988-6.712h2.029l1.154 2.96c.129.325.25.663.361 1.015.111.342.222.695.333 1.056h.056c.093-.343.194-.686.306-1.029.111-.352.217-.699.319-1.042l1.015-2.96h1.931l-2.723 6.963a7.354 7.354 0 0 1-.542 1.139 3.155 3.155 0 0 1-.667.82 2.49 2.49 0 0 1-.876.5 3.516 3.516 0 0 1-1.139.167c-.204 0-.394-.014-.57-.042a2.53 2.53 0 0 1-.487-.097l.362-1.556z" fill="#000"/></svg>