<svg width="190" height="52" viewBox="0 0 190 52" fill="none" xmlns="http://www.w3.org/2000/svg">
<rect x="1" y="1" width="181" height="40" rx="1" stroke="black" stroke-width="2"/>
<rect x="6.02528" y="10.661" width="181" height="40" rx="1" transform="rotate(-1.4676 6.02528 10.661)" stroke="black" stroke-width="2"/>
<path d="M49.9033 19.9395H51.9461L52.8632 23.1496L53.169 24.4002H53.2106L53.5164 23.1496L54.3919 19.9395H56.4346V29H54.781V26.04C54.781 25.7899 54.7902 25.4842 54.8088 25.1229C54.8273 24.7523 54.8504 24.3725 54.8782 23.9834C54.906 23.5942 54.9338 23.219 54.9616 22.8577C54.9894 22.4872 55.0172 22.1814 55.045 21.9406H55.0033L54.2946 24.428L53.5998 26.582H52.6965L52.0017 24.428L51.3207 21.9406H51.2651C51.2929 22.1814 51.3207 22.4872 51.3485 22.8577C51.3763 23.219 51.4041 23.5942 51.4319 23.9834C51.4597 24.3725 51.4828 24.7523 51.5014 25.1229C51.5199 25.4842 51.5292 25.7899 51.5292 26.04V29H49.9033V19.9395ZM58.6249 30.0006C58.8009 30.0561 58.9815 30.0839 59.1668 30.0839C59.5652 30.0839 59.8756 30.0006 60.0979 29.8338C60.3295 29.667 60.5009 29.4493 60.6121 29.1807L60.751 28.8193L57.7633 22.1073H59.7922L60.9456 25.0673C61.0753 25.3915 61.1957 25.7297 61.3069 26.0817C61.4181 26.4245 61.5292 26.7766 61.6404 27.1379H61.696C61.7886 26.7951 61.8906 26.4523 62.0017 26.1095C62.1129 25.7575 62.2194 25.4101 62.3213 25.0673L63.3358 22.1073H65.2674L62.5437 29.0695C62.3769 29.5049 62.1963 29.8847 62.0017 30.209C61.8072 30.5425 61.5848 30.8158 61.3347 31.0289C61.0846 31.2512 60.7927 31.418 60.4592 31.5292C60.135 31.6403 59.7551 31.6959 59.3197 31.6959C59.1159 31.6959 58.926 31.682 58.7499 31.6542C58.5739 31.6357 58.4118 31.6033 58.2636 31.557L58.6249 30.0006ZM74.6089 24.5253C74.6089 23.7656 74.7155 23.094 74.9285 22.5103C75.1509 21.9174 75.4473 21.4218 75.8179 21.0234C76.1978 20.6158 76.6424 20.3054 77.152 20.0923C77.6615 19.8792 78.2081 19.7727 78.7918 19.7727C79.4032 19.7727 79.922 19.8931 80.3482 20.134C80.7836 20.3656 81.1496 20.6297 81.446 20.9261L80.3204 22.1907C80.1258 21.9961 79.9128 21.8387 79.6812 21.7182C79.4495 21.5978 79.1531 21.5376 78.7918 21.5376C78.4953 21.5376 78.222 21.607 77.9719 21.746C77.7217 21.8757 77.504 22.0656 77.3187 22.3158C77.1335 22.5659 76.9852 22.8716 76.8741 23.2329C76.7721 23.5942 76.7212 24.0019 76.7212 24.4558C76.7212 25.3915 76.8972 26.1188 77.2493 26.6376C77.6106 27.1471 78.1525 27.4019 78.8752 27.4019C79.0512 27.4019 79.2179 27.3787 79.3754 27.3324C79.5329 27.2861 79.6626 27.2166 79.7645 27.124V25.5676H78.4444V23.9H81.5989V28.0689C81.2932 28.3561 80.8902 28.6109 80.3899 28.8332C79.8896 29.0556 79.3476 29.1668 78.764 29.1668C78.1803 29.1668 77.6337 29.0695 77.1242 28.8749C76.6239 28.6711 76.1839 28.3747 75.804 27.9856C75.4334 27.5965 75.1416 27.1147 74.9285 26.5403C74.7155 25.9567 74.6089 25.285 74.6089 24.5253ZM83.1777 27.0823C83.1777 26.6932 83.261 26.355 83.4278 26.0678C83.5946 25.7714 83.8586 25.5212 84.2199 25.3174C84.5905 25.1136 85.063 24.9515 85.6373 24.831C86.2117 24.7013 86.9066 24.6133 87.7218 24.567C87.6848 24.252 87.5458 24.0065 87.3049 23.8305C87.0733 23.6545 86.7213 23.5665 86.2488 23.5665C85.9153 23.5665 85.5771 23.6267 85.2343 23.7471C84.9008 23.8583 84.5395 24.0111 84.1504 24.2057L83.4278 22.8716C83.9003 22.603 84.4052 22.3806 84.9425 22.2046C85.4891 22.0286 86.0589 21.9406 86.6518 21.9406C87.6153 21.9406 88.375 22.1953 88.9308 22.7049C89.4867 23.2144 89.7646 23.9972 89.7646 25.0534V29H88.097L87.9442 28.2218H87.8886C87.5365 28.4905 87.1521 28.7174 86.7352 28.9027C86.3183 29.0787 85.8875 29.1668 85.4428 29.1668C85.0907 29.1668 84.7758 29.1112 84.4978 29C84.2199 28.8981 83.9837 28.7545 83.7891 28.5692C83.5946 28.3747 83.4417 28.1523 83.3305 27.9022C83.2286 27.652 83.1777 27.3787 83.1777 27.0823ZM85.1371 26.9294C85.1371 27.1518 85.2204 27.3185 85.3872 27.4297C85.5632 27.5316 85.7995 27.5826 86.0959 27.5826C86.4017 27.5826 86.6888 27.5223 86.9575 27.4019C87.2262 27.2722 87.4809 27.1147 87.7218 26.9294V25.7899C87.2123 25.8177 86.7908 25.864 86.4572 25.9289C86.1237 25.9937 85.8597 26.0771 85.6651 26.179C85.4706 26.2716 85.3316 26.3828 85.2482 26.5125C85.1741 26.6422 85.1371 26.7812 85.1371 26.9294ZM91.524 19.2585H95.5679V26.3875C95.5679 26.6005 95.5957 26.7812 95.6513 26.9294C95.7162 27.0684 95.7995 27.1842 95.9015 27.2768C96.0126 27.3602 96.1331 27.4204 96.2628 27.4575C96.4017 27.4945 96.5407 27.5131 96.6797 27.5131C96.8372 27.5131 97.0039 27.4992 97.1799 27.4714C97.356 27.4343 97.5505 27.3741 97.7636 27.2907L98.2222 28.7916C98.0369 28.8471 97.8655 28.8981 97.708 28.9444C97.5505 28.9907 97.393 29.0278 97.2355 29.0556C97.078 29.0926 96.9113 29.1204 96.7352 29.139C96.5592 29.1575 96.3647 29.1668 96.1516 29.1668C95.2807 29.1668 94.623 28.912 94.1783 28.4024C93.7429 27.8836 93.5251 27.1842 93.5251 26.3041V20.8705H91.524V19.2585ZM99.8565 19.2585H103.9V26.3875C103.9 26.6005 103.928 26.7812 103.984 26.9294C104.049 27.0684 104.132 27.1842 104.234 27.2768C104.345 27.3602 104.466 27.4204 104.595 27.4575C104.734 27.4945 104.873 27.5131 105.012 27.5131C105.17 27.5131 105.336 27.4992 105.512 27.4714C105.688 27.4343 105.883 27.3741 106.096 27.2907L106.555 28.7916C106.369 28.8471 106.198 28.8981 106.04 28.9444C105.883 28.9907 105.726 29.0278 105.568 29.0556C105.411 29.0926 105.244 29.1204 105.068 29.139C104.892 29.1575 104.697 29.1668 104.484 29.1668C103.613 29.1668 102.955 28.912 102.511 28.4024C102.075 27.8836 101.858 27.1842 101.858 26.3041V20.8705H99.8565V19.2585ZM108.092 25.5537C108.092 24.9885 108.189 24.4836 108.384 24.0389C108.587 23.5942 108.856 23.219 109.19 22.9133C109.523 22.5983 109.903 22.3575 110.329 22.1907C110.765 22.0239 111.214 21.9406 111.677 21.9406C112.205 21.9406 112.673 22.0239 113.081 22.1907C113.488 22.3575 113.826 22.5891 114.095 22.8855C114.364 23.182 114.568 23.534 114.707 23.9417C114.845 24.34 114.915 24.7755 114.915 25.2479C114.915 25.4332 114.906 25.6092 114.887 25.776C114.869 25.9428 114.85 26.0678 114.832 26.1512H110.19C110.264 26.67 110.487 27.0452 110.857 27.2768C111.237 27.4992 111.682 27.6103 112.191 27.6103C112.506 27.6103 112.803 27.5733 113.081 27.4992C113.368 27.4158 113.664 27.2954 113.97 27.1379L114.637 28.3608C114.248 28.6109 113.812 28.8101 113.331 28.9583C112.849 29.0973 112.377 29.1668 111.913 29.1668C111.376 29.1668 110.876 29.088 110.412 28.9305C109.949 28.7638 109.546 28.5275 109.203 28.2218C108.861 27.9068 108.587 27.527 108.384 27.0823C108.189 26.6376 108.092 26.128 108.092 25.5537ZM113.067 24.8032C113.067 24.4141 112.96 24.0992 112.747 23.8583C112.534 23.6174 112.191 23.497 111.719 23.497C111.348 23.497 111.019 23.6035 110.732 23.8166C110.445 24.0297 110.255 24.3586 110.162 24.8032H113.067ZM117.272 22.1073H118.94L119.106 23.6081H119.148C119.491 23.043 119.903 22.6261 120.385 22.3575C120.867 22.0795 121.385 21.9406 121.941 21.9406C122.247 21.9406 122.492 21.9637 122.678 22.01C122.872 22.0564 123.071 22.1258 123.275 22.2185L122.858 23.9278C122.645 23.8629 122.451 23.8166 122.275 23.7888C122.108 23.7517 121.895 23.7332 121.635 23.7332C121.209 23.7332 120.788 23.8583 120.371 24.1084C119.963 24.3586 119.611 24.794 119.315 25.4147V29H117.272V22.1073ZM125.285 30.0006C125.461 30.0561 125.641 30.0839 125.827 30.0839C126.225 30.0839 126.535 30.0006 126.758 29.8338C126.989 29.667 127.161 29.4493 127.272 29.1807L127.411 28.8193L124.423 22.1073H126.452L127.606 25.0673C127.735 25.3915 127.856 25.7297 127.967 26.0817C128.078 26.4245 128.189 26.7766 128.3 27.1379H128.356C128.449 26.7951 128.55 26.4523 128.662 26.1095C128.773 25.7575 128.879 25.4101 128.981 25.0673L129.996 22.1073H131.927L129.204 29.0695C129.037 29.5049 128.856 29.8847 128.662 30.209C128.467 30.5425 128.245 30.8158 127.995 31.0289C127.744 31.2512 127.453 31.418 127.119 31.5292C126.795 31.6403 126.415 31.6959 125.98 31.6959C125.776 31.6959 125.586 31.682 125.41 31.6542C125.234 31.6357 125.072 31.6033 124.923 31.557L125.285 30.0006Z" fill="black"/>
</svg>
